<mxfile host="app.diagrams.net" modified="2024-07-23T23:38:58.746Z" agent="Mozilla/5.0 (Windows NT 10.0; Win64; x64; rv:128.0) Gecko/20100101 Firefox/128.0" version="24.3.1" etag="sDJ0m7vwiCDXxw-zLm2C" type="github">
  <diagram name="Page-1" id="Zuip9mcSwI6NXy7L1fva">
    <mxGraphModel>
      <root>
        <mxCell id="0" />
        <mxCell id="1" parent="0" />
      </root>
    </mxGraphModel>
  </diagram>
</mxfile>
